<?xml version="1.0" encoding="UTF-8" standalone="no"?>
<svg
   xmlns:dc="http://purl.org/dc/elements/1.1/"
   xmlns:cc="http://creativecommons.org/ns#"
   xmlns:rdf="http://www.w3.org/1999/02/22-rdf-syntax-ns#"
   xmlns:svg="http://www.w3.org/2000/svg"
   xmlns="http://www.w3.org/2000/svg"
   viewBox="0 0 841.88977 595.27557"
   id="svg71"
   height="595.27557"
   width="841.88977"
   version="1.1">
  <metadata
     id="metadata77">
    <rdf:RDF>
      <cc:Work
         rdf:about="">
        <dc:format>image/svg+xml</dc:format>
        <dc:type
           rdf:resource="http://purl.org/dc/dcmitype/StillImage" />
      </cc:Work>
    </rdf:RDF>
  </metadata>
  <defs
     id="defs75" />
  <g
     id="Layer1000">
    <g
       id="Layer1001">
      <path
         id="path2"
         style="fill:#e30016;fill-rule:evenodd"
         d="m 542.4137,361.437 c 12.5538,1.4067 22.7307,15.8629 22.7307,32.289 0,16.426 -10.1769,28.6016 -22.7307,27.195 -12.5537,-1.4067 -22.7306,-15.8629 -22.7306,-32.289 0,-16.4261 10.1769,-28.6017 22.7306,-27.195 z m 0,13.8306 c 3.334,0 6.0367,7.4001 6.0367,16.5286 0,9.1285 -2.7027,16.5287 -6.0367,16.5287 -3.3339,0 -6.0367,-7.4002 -6.0367,-16.5287 0,-9.1285 2.7028,-16.5286 6.0367,-16.5286 z" />
      <path
         id="path4"
         style="fill:#e30016;fill-rule:evenodd"
         d="m 655.5858,70.5247 c 14.5966,-8.4273 35.692,-12.6099 54.2609,-12.6099 71.5486,0 106.038,43.7802 106.038,90.1801 0,36.7751 -29.3163,62.8505 -50.0576,72.9847 29.842,14.2345 51.9682,43.8148 51.9682,73.94 0,76.2194 -60.3962,107.635 -112.1096,107.635 -45.2342,0 -64.1291,-19.0095 -71.5221,-24.3095 l -13.5435,-81.6115 c 10.3436,10.4342 40.0042,31.1482 63.8157,31.1482 35.2478,0 46.0453,-18.7173 46.0453,-38.7851 0,-41.0275 -56.8504,-42.993 -79.4807,-41.6509 l 0.5732,-49.6755 c 37.9263,0 71.455,-13.8948 71.455,-41.4623 0,-22.8287 -17.9814,-37.0019 -39.3436,-37.0019 -19.3802,0 -40.128,10.0079 -55.5347,21.5076 z" />
      <path
         id="path6"
         style="fill:#e30016;fill-rule:evenodd"
         d="m 170.3875,87.8334 -27.2062,34.3371 c -6.3062,-8.1861 -16.7164,-18.3614 -31.0024,-18.3614 -10.6777,0 -18.6647,9.2596 -18.6647,17.8739 0,14.2561 21.6563,31.7898 36.5385,43.4983 27.537,21.6645 39.5544,35.8206 39.5544,66.3259 0,44.3342 -39.1799,69.3888 -72.2967,69.3888 -28.4489,0 -44.3735,-10.5755 -55.7022,-21.2645 C 36.3504,274.6706 32.0368,269.541 29.41,265.0908 L 60.4555,227.028 c 3.5408,13.2147 17.7174,31.122 32.8297,31.122 13.036,0 23.639,-12.2908 23.639,-23.3714 0,-15.854 -16.736,-33.9369 -35.9059,-49.6672 -19.2312,-15.7805 -40.0184,-31.059 -40.0184,-63.5866 0,-31.5726 25.1207,-64.2476 69.381,-64.2476 36.62,0 51.6105,20.8484 60.0066,30.5562 z" />
      <path
         id="path8"
         style="fill:#e30016;fill-rule:evenodd"
         d="m 171.0502,61.0412 h 47.6017 v 143.3666 c 0,6.2249 5.0931,11.318 11.318,11.318 6.2249,0 11.3179,-5.0931 11.3179,-11.318 V 61.0412 h 47.6018 v 141.2426 c 0,32.4059 -26.5138,58.9197 -58.9197,58.9197 -32.4058,0 -58.9197,-24.1902 -58.9197,-56.596 z" />
      <path
         id="path10"
         style="fill:#e30016;fill-rule:evenodd"
         d="m 302.0885,61.0412 h 50.0371 c 33.9299,0 67.9687,25.3954 67.9687,60.6532 0,33.9299 -34.0388,62.7281 -67.9687,62.7281 h -5.8482 v 48.3864 l -44.1889,9.1308 z m 44.1889,38.0412 v 47.2989 h 3.948 c 13.0072,0 23.6494,-10.6422 23.6494,-23.6494 0,-13.0072 -10.6422,-23.6495 -23.6494,-23.6495 z" />
      <path
         id="path12"
         style="fill:#e30016;fill-rule:evenodd"
         d="m 413.7518,61.0412 h 88.7048 v 37.2497 h -49.2631 v 20.4528 h 40.4441 v 35.589 h -40.4441 v 26.0841 l 49.2631,-2.7071 v 35.1382 c -30.6458,1.7003 -60.1505,4.1992 -88.7048,7.3634 z" />
      <path
         id="path14"
         style="fill:#e30016;fill-rule:evenodd"
         d="m 510.9339,61.0412 h 51.1517 c 36.8306,0 57.2997,19.7633 57.2997,46.8964 0,18.466 -11.4905,33.3853 -27.6022,39.7805 l 33.1246,65.097 -46.1164,-2.2333 -26.927,-49.3847 v 50.264 l -40.9304,0.1997 z m 40.9304,37.2497 v 27.5875 h 10.3459 c 7.5865,0 13.7937,-6.2072 13.7937,-13.7938 0,-7.5865 -6.2072,-13.7937 -13.7937,-13.7937 z" />
      <path
         id="path16"
         style="fill:#e30016;fill-rule:evenodd"
         d="m 444.471,223.1324 39.6459,-3.6137 v 133.7761 l -39.6459,8.1921 z" />
      <path
         id="path18"
         style="fill:#e30016;fill-rule:evenodd"
         d="m 333.9551,240.8558 10.8518,-1.9735 39.2819,-7.1439 c 35.4059,-6.439 56.1593,14.9922 56.1593,36.6832 0,13.761 -3.0487,34.6534 -30.5035,43.1515 l 32.5986,50.5861 -39.4438,9.7103 -28.8284,-42.5349 v 51.6781 l -40.1159,14.1002 z m 40.1159,25.5746 v 26.854 l 10.1399,-1.8441 c 7.4356,-1.3522 13.2633,-8.3301 13.2633,-15.9167 0,-8.4674 -6.2266,-12.2169 -16.892,-10.2773 z" />
      <path
         id="path20"
         style="fill:#e30016;fill-rule:evenodd"
         d="m 300.0426,249.5478 38.4896,144.7198 -36.4301,12.6942 -4.8251,-17.7941 -44.9166,18.2363 -4.6248,22.2062 -45.0098,20.7471 41.0344,-188.4059 z m -11.5167,107.3479 -14.5054,-53.4929 -13.3201,63.9566 z" />
      <path
         id="path22"
         style="fill:#e30016;fill-rule:evenodd"
         d="m 206.1994,271.2478 v 177.4807 l -41.9832,20.4114 v -91.2781 l -44.81,113.7925 -39.9009,-83.3645 V 517.41 L 38.2657,543.0446 V 315.2364 l 41.2396,-11.4424 39.301,83.5075 41.0027,-103.9041 z" />
      <path
         id="path24"
         style="fill:#e30016;fill-rule:evenodd"
         d="m 505.523,407.6369 12.4135,17.7406 -11.839,3.8373 -15.8709,-20.5387 -0.6182,24.7303 -15.951,4.607 1.5768,-61.8574 14.3774,-3.8653 c 16.8151,-4.5207 27.0121,8.3976 27.7651,16.9363 0.4758,5.3959 -1.0938,15.105 -11.8537,18.4099 z m -14.6998,-22.8254 -0.33,13.1988 4.4752,-0.9908 c 2.9392,-0.6508 7.3415,-2.8577 7.021,-7.4952 -0.2481,-3.5883 -4.2352,-5.9234 -8.455,-5.1864 z" />
      <path
         id="path26"
         style="fill:#e30016;fill-rule:evenodd"
         d="m 547.7089,214.6079 c 35.8284,0 64.8731,29.8216 64.8731,66.6084 0,36.7868 -29.0447,66.6084 -64.8731,66.6084 -35.8285,0 -64.8732,-29.8216 -64.8732,-66.6084 0,-36.7868 29.0447,-66.6084 64.8732,-66.6084 z m -0.5511,35.767 c 11.9755,0 21.6835,10.3895 21.6835,29.1809 0,18.7913 -9.708,29.1808 -21.6835,29.1808 -11.9755,0 -21.6835,-13.0647 -21.6835,-29.1808 0,-16.1162 9.708,-29.1809 21.6835,-29.1809 z" />
      <path
         id="path28"
         style="fill:#e30016;fill-rule:evenodd"
         d="m 615.2173,391.8195 c 4.1226,0.5852 7.4647,4.7958 7.4647,9.4971 0,4.0879 -3.3421,5.8919 -7.4647,5.3067 -4.1226,-0.5852 -7.4646,-5.0257 -7.4646,-9.1136 0,-4.088 3.342,-6.2755 7.4646,-5.6902 z" />
      <path
         id="path30"
         style="fill:#e30016;fill-rule:evenodd"
         d="m 600.8168,362.0375 -6.4713,9.0794 c -3.5182,-2.4952 -6.6338,-4.3191 -8.6382,-4.3191 -1.6544,0 -3.1437,1.274 -3.1437,3.0014 0,2.516 2.5664,5.2686 4.9006,6.9545 11.4946,8.3025 16.6909,12.4977 16.6909,21.5957 0,7.9808 -6.8244,13.9425 -14.8287,14.0554 -8.8237,0.1244 -16.9323,-4.1503 -23.0918,-10.9808 l 7.658,-7.9855 c 2.3758,1.7714 7.2746,6.741 11.7238,6.741 3.1041,0 4.6296,-2.2164 4.6296,-3.5871 0,-3.315 -6.1543,-7.3798 -9.9559,-10.2488 -4.7585,-3.591 -12.6585,-7.4352 -12.6585,-18.1549 0,-6.7612 5.3846,-12.8842 15.2939,-12.8842 6.3166,0 11.9076,2.3888 17.8913,6.733 z" />
      <path
         id="path32"
         style="fill:#e30016;fill-rule:evenodd"
         d="m 427.5919,387.3941 14.1918,-3.9826 c 16.0285,-4.498 25.6714,4.6848 26.4243,13.2233 0.3783,4.2917 -1.7926,10.4784 -8.3028,14.3662 6.3159,3.7204 10.0987,10.6222 10.5589,15.8409 0.5263,5.969 -3.9344,15.2909 -17.9003,20.3523 -8.686,3.1478 -17.4689,5.5201 -26.3828,6.8442 z m 15.0983,31.8291 -0.2718,15.1502 4.6178,-1.4293 c 2.8758,-0.8901 7.8277,-3.2396 7.5073,-8.7134 -0.2101,-3.5907 -4.0253,-6.9759 -8.1793,-5.9314 z m 0.4257,-23.7199 -0.2167,12.0742 3.3379,-0.7391 c 2.9393,-0.6508 7.7496,-2.5371 7.4291,-7.1745 -0.248,-3.5883 -3.7177,-5.3541 -7.9373,-4.617 z" />
    </g>
    <g
       id="Layer1002">
      <path
         id="path35"
         style="fill:#0468b3;fill-rule:evenodd"
         d="m 537.0982,370.1039 c 3.334,0 6.0367,7.4001 6.0367,16.5286 0,9.1285 -2.7027,16.5287 -6.0367,16.5287 -3.334,0 -6.0367,-7.4002 -6.0367,-16.5287 0,-9.1285 2.7027,-16.5286 6.0367,-16.5286 z m 0,-13.8306 c 12.5538,1.4067 22.7307,15.8629 22.7307,32.289 0,16.4261 -10.1769,28.6016 -22.7307,27.195 -12.5537,-1.4067 -22.7306,-15.8629 -22.7306,-32.289 0,-16.426 10.1769,-28.6017 22.7306,-27.195 z" />
      <path
         id="path37"
         style="fill:#0468b3;fill-rule:evenodd"
         d="m 650.2703,65.4786 c 14.5965,-8.4273 35.692,-12.6099 54.2609,-12.6099 71.5486,0 106.0379,43.7802 106.0379,90.1801 0,36.7751 -29.3162,62.8505 -50.0575,72.9847 29.842,14.2345 51.9681,43.8147 51.9681,73.94 0,76.2194 -60.3961,107.635 -112.1095,107.635 -45.2342,0 -64.1291,-19.0095 -71.5222,-24.3095 l -13.5434,-81.6115 c 10.3436,10.4342 40.0041,31.1482 63.8157,31.1482 35.2478,0 46.0453,-18.7173 46.0453,-38.7851 0,-41.0275 -56.8504,-42.993 -79.4807,-41.6509 l 0.5731,-49.6755 c 37.9264,0 71.455,-13.8948 71.455,-41.4624 0,-22.8287 -17.9813,-37.0018 -39.3435,-37.0018 -19.3803,0 -40.128,10.0079 -55.5347,21.5076 z" />
      <path
         id="path39"
         style="fill:#0468b3;fill-rule:evenodd"
         d="m 165.072,82.7873 -27.2062,34.3371 c -6.3062,-8.1861 -16.7164,-18.3614 -31.0024,-18.3614 -10.6777,0 -18.6648,9.2596 -18.6648,17.8739 0,14.256 21.6564,31.7898 36.5386,43.4983 27.537,21.6645 39.5544,35.8205 39.5544,66.3258 0,44.3343 -39.1799,69.3889 -72.2968,69.3889 -28.4488,0 -44.3734,-10.5755 -55.7021,-21.2645 -5.2579,-4.961 -9.5715,-10.0906 -12.1982,-14.5407 l 31.0454,-38.0628 c 3.5409,13.2147 17.7175,31.122 32.8298,31.122 13.0359,0 23.639,-12.2908 23.639,-23.3714 0,-15.854 -16.736,-33.9369 -35.9059,-49.6672 -19.2312,-15.7805 -40.0185,-31.059 -40.0185,-63.5866 0,-31.5727 25.1207,-64.2476 69.381,-64.2476 36.6201,0 51.6105,20.8484 60.0067,30.5562 z" />
      <path
         id="path41"
         style="fill:#0468b3;fill-rule:evenodd"
         d="m 165.7347,55.9951 h 47.6017 v 143.3666 c 0,6.2249 5.0931,11.318 11.3179,11.318 6.2249,0 11.318,-5.0931 11.318,-11.318 V 55.9951 h 47.6017 v 141.2426 c 0,32.4059 -26.5138,58.9197 -58.9197,58.9197 -32.4058,0 -58.9196,-24.1902 -58.9196,-56.596 z" />
      <path
         id="path43"
         style="fill:#0468b3;fill-rule:evenodd"
         d="m 296.773,55.9951 h 50.0371 c 33.9298,0 67.9687,25.3954 67.9687,60.6532 0,33.9299 -34.0388,62.7281 -67.9687,62.7281 h -5.8483 v 48.3864 l -44.1888,9.1308 z m 44.1888,38.0412 v 47.2989 h 3.9481 c 13.0072,0 23.6494,-10.6423 23.6494,-23.6494 0,-13.0072 -10.6423,-23.6495 -23.6494,-23.6495 z" />
      <path
         id="path45"
         style="fill:#0468b3;fill-rule:evenodd"
         d="m 408.4362,55.9951 h 88.7048 v 37.2497 h -49.2631 v 20.4528 h 40.4441 v 35.589 h -40.4441 v 26.0841 l 49.2631,-2.7071 v 35.1381 c -30.6457,1.7003 -60.1505,4.1993 -88.7048,7.3635 z" />
      <path
         id="path47"
         style="fill:#0468b3;fill-rule:evenodd"
         d="M 505.6184,55.9951 H 556.77 c 36.8306,0 57.2997,19.7633 57.2997,46.8964 0,18.466 -11.4904,33.3853 -27.6021,39.7805 l 33.1246,65.097 -46.1165,-2.2333 -26.9269,-49.3847 v 50.264 l -40.9304,0.1996 z m 40.9304,37.2497 v 27.5875 h 10.3458 c 7.5866,0 13.7938,-6.2072 13.7938,-13.7938 0,-7.5866 -6.2072,-13.7937 -13.7938,-13.7937 z" />
      <path
         id="path49"
         style="fill:#0468b3;fill-rule:evenodd"
         d="m 439.1555,218.0863 39.6459,-3.6137 v 133.776 l -39.6459,8.1921 z" />
      <path
         id="path51"
         style="fill:#0468b3;fill-rule:evenodd"
         d="m 328.6396,235.8097 10.8517,-1.9736 39.2819,-7.1438 c 35.406,-6.439 56.1594,14.9922 56.1594,36.6831 0,13.7611 -3.0488,34.6535 -30.5035,43.1516 l 32.5986,50.5861 -39.4439,9.7102 -28.8284,-42.5348 v 51.6781 l -40.1158,14.1002 z m 40.1158,25.5746 v 26.854 l 10.1399,-1.8441 c 7.4356,-1.3523 13.2633,-8.3301 13.2633,-15.9167 0,-8.4674 -6.2265,-12.217 -16.892,-10.2774 z" />
      <path
         id="path53"
         style="fill:#0468b3;fill-rule:evenodd"
         d="m 294.7271,244.5017 38.4896,144.7198 -36.4301,12.6942 -4.8252,-17.7941 -44.9165,18.2363 -4.6249,22.2061 -45.0097,20.7471 41.0344,-188.4059 z m -11.5167,107.3479 -14.5055,-53.4929 -13.32,63.9565 z" />
      <path
         id="path55"
         style="fill:#0468b3;fill-rule:evenodd"
         d="m 200.8839,266.2017 v 177.4806 l -41.9832,20.4115 v -91.2781 l -44.81,113.7925 -39.9009,-83.3645 V 512.3639 L 32.9501,537.9985 V 310.1903 l 41.2397,-11.4424 39.301,83.5075 41.0026,-103.9041 z" />
      <path
         id="path57"
         style="fill:#0468b3;fill-rule:evenodd"
         d="m 500.2074,402.5908 12.4136,17.7406 -11.839,3.8373 -15.8709,-20.5387 -0.6183,24.7303 -15.9509,4.607 1.5768,-61.8574 14.3774,-3.8653 c 16.815,-4.5207 27.0121,8.3976 27.765,16.9363 0.4759,5.3958 -1.0938,15.105 -11.8537,18.4099 z m -14.6998,-22.8254 -0.3299,13.1988 4.4751,-0.9909 c 2.9393,-0.6508 7.3415,-2.8576 7.021,-7.4951 -0.248,-3.5884 -4.2352,-5.9235 -8.4549,-5.1864 z" />
      <path
         id="path59"
         style="fill:#0468b3;fill-rule:evenodd"
         d="m 542.3933,209.5618 c 35.8285,0 64.8732,29.8216 64.8732,66.6084 0,36.7868 -29.0447,66.6084 -64.8732,66.6084 -35.8284,0 -64.8731,-29.8216 -64.8731,-66.6084 0,-36.7868 29.0447,-66.6084 64.8731,-66.6084 z m -0.5511,35.767 c 11.9755,0 21.6835,10.3895 21.6835,29.1808 0,18.7913 -9.708,29.1809 -21.6835,29.1809 -11.9754,0 -21.6835,-13.0648 -21.6835,-29.1809 0,-16.1161 9.7081,-29.1808 21.6835,-29.1808 z" />
      <path
         id="path61"
         style="fill:#0468b3;fill-rule:evenodd"
         d="m 609.9018,386.7733 c 4.1226,0.5853 7.4647,4.7958 7.4647,9.4971 0,4.088 -3.3421,5.892 -7.4647,5.3068 -4.1226,-0.5852 -7.4647,-5.0257 -7.4647,-9.1137 0,-4.0879 3.3421,-6.2754 7.4647,-5.6902 z" />
      <path
         id="path63"
         style="fill:#0468b3;fill-rule:evenodd"
         d="m 595.5013,356.9914 -6.4713,9.0794 c -3.5183,-2.4952 -6.6339,-4.3191 -8.6382,-4.3191 -1.6545,0 -3.1437,1.274 -3.1437,3.0014 0,2.516 2.5664,5.2685 4.9006,6.9545 11.4945,8.3025 16.6908,12.4977 16.6908,21.5956 0,7.9809 -6.8244,13.9425 -14.8286,14.0555 -8.8237,0.1244 -16.9323,-4.1503 -23.0918,-10.9808 l 7.658,-7.9855 c 2.3758,1.7714 7.2745,6.741 11.7237,6.741 3.1041,0 4.6297,-2.2164 4.6297,-3.5871 0,-3.3151 -6.1544,-7.3798 -9.956,-10.2488 -4.7585,-3.5911 -12.6584,-7.4352 -12.6584,-18.1549 0,-6.7612 5.3846,-12.8842 15.2938,-12.8842 6.3167,0 11.9077,2.3888 17.8914,6.733 z" />
      <path
         id="path65"
         style="fill:#0468b3;fill-rule:evenodd"
         d="m 422.2764,382.3479 14.1917,-3.9825 c 16.0285,-4.498 25.6715,4.6848 26.4243,13.2233 0.3784,4.2917 -1.7926,10.4784 -8.3027,14.3662 6.3159,3.7204 10.0987,10.6222 10.5589,15.8409 0.5262,5.969 -3.9344,15.2909 -17.9004,20.3523 -8.686,3.1478 -17.4688,5.5201 -26.3827,6.8442 z m 15.0983,31.8292 -0.2718,15.1502 4.6178,-1.4293 c 2.8758,-0.8901 7.8276,-3.2396 7.5073,-8.7135 -0.2101,-3.5906 -4.0253,-6.9759 -8.1794,-5.9313 z m 0.4257,-23.7199 -0.2167,12.0742 3.3379,-0.7391 c 2.9392,-0.6508 7.7495,-2.5372 7.429,-7.1745 -0.2479,-3.5883 -3.7176,-5.3541 -7.9373,-4.617 z" />
    </g>
    <path
       id="path68"
       style="fill:#0468b3;fill-rule:evenodd"
       d="m 804.061,388.8794 c 1.1005,0 1.8829,-0.1691 2.3503,-0.5039 0.4674,-0.3381 0.6995,-0.8917 0.6995,-1.6641 0,-0.7758 -0.2088,-1.3261 -0.6266,-1.6476 -0.4176,-0.3216 -1.2265,-0.4807 -2.4232,-0.4807 h -2.798 v 4.2963 z m -4.7074,8.2147 v -14.321 h 5.0488 c 1.5779,0 2.7648,0.3149 3.5637,0.9414 0.7956,0.6299 1.1934,1.5614 1.1934,2.7979 0,0.852 -0.232,1.578 -0.6928,2.1681 -0.4641,0.5934 -1.1106,1.0011 -1.9394,1.2199 0.6299,0.1426 1.0907,0.3647 1.3857,0.6664 0.2918,0.2983 0.5138,0.7889 0.6631,1.4685 0.0463,0.2155 0.1458,0.8984 0.2983,2.0553 0.1525,1.1537 0.3514,2.1548 0.5967,3.0035 h -2.0487 c -0.2022,-0.8089 -0.368,-1.7769 -0.5006,-2.9007 -0.1325,-1.1271 -0.2519,-1.8299 -0.3547,-2.1084 -0.1956,-0.5502 -0.4972,-0.9282 -0.9083,-1.1403 -0.411,-0.2089 -1.0774,-0.3149 -1.9956,-0.3149 h -2.4002 v 6.4643 z m 4.9733,-19.3946 c 7.0072,0 13.2595,5.3255 13.2595,12.5343 0,7.2088 -6.2522,12.5343 -13.2595,12.5343 -7.0072,0 -13.2595,-5.3255 -13.2595,-12.5343 0,-7.2088 6.2523,-12.5343 13.2595,-12.5343 z m 0,1.8514 c -5.99,0 -11.4081,4.4926 -11.4081,10.6829 0,6.1904 5.4181,10.6829 11.4081,10.6829 5.9901,0 11.4081,-4.4925 11.4081,-10.6829 0,-6.1903 -5.4181,-10.6829 -11.4081,-10.6829 z" />
  </g>
</svg>
